<?xml version="1.0" encoding="UTF-8" standalone="no"?>
<!-- Created with Inkscape (http://www.inkscape.org/) -->
<svg xmlns:rdf="http://www.w3.org/1999/02/22-rdf-syntax-ns#"
  xmlns="http://www.w3.org/2000/svg"
  xmlns:i="http://ns.adobe.com/AdobeIllustrator/10.0/"
  xmlns:cc="http://web.resource.org/cc/"
  xmlns:xlink="http://www.w3.org/1999/xlink"
  xmlns:a="http://ns.adobe.com/AdobeSVGViewerExtensions/3.0/"
  xmlns:dc="http://purl.org/dc/elements/1.1/"
  xmlns:svg="http://www.w3.org/2000/svg"
  xmlns:inkscape="http://www.inkscape.org/namespaces/inkscape"
  xmlns:sodipodi="http://sodipodi.sourceforge.net/DTD/sodipodi-0.dtd"
  xmlns:ns1="http://sozi.baierouge.fr" id="svg2" version="1.1" viewBox="0 0 499.99999 500.00001" inkscape:version="0.91 r13725">

  <g id="Layer_1" transform="translate(3.606 22.606)">
    <g id="g3932" transform="matrix(1.0845 0 0 1.0845 -19.217 -19.217)">
      <path id="path13" style="fill-rule:evenodd;stroke-width:6.25;fill:none" d="m227.39 0h-209.39c-9.941 0-18 8.059-18 18v418.79c0 9.94 8.059 18 18 18h418.79c9.941 0 18-8.06 18-18v-418.79c0-9.941-8.059-18-18-18h-209.4z"/>
      <g id="g3134" >
      <g transform="translate(5, 25) scale(0.9)">
        <path id="path99" style="fill-rule:evenodd;fill:#0c4a6e" d="m63.949 280.64-24.949-13.14l0.288-16.309 3.06-2.844-0.323-88.308h-0.001c0-3.06 0.505-5.94 1.513-8.496 0.899-2.7 2.376-5.112 4.572-7.092 2.052-1.944 1.331-2.556 8.532-4.608 7.308-2.196 19.26-4.824 34.74-8.172 15.407-3.492 40.176-9.036 56.951-12.06 16.633-3.06 28.08-4.608 42.66-6.012 14.473-1.44 28.764-2.268 43.847-2.484 14.941-0.252 32.58-0.288 45.686 0.72 13.104 0.828 24.84 2.232 32.291 4.608 7.236 2.268 7.885 5.004 11.268 9.576 3.313 4.536 6.805 3.96 8.533 17.712 1.619 13.932 1.295 41.976 1.512 64.548 0.215 22.356 0.072 44.964-0.289 68.796l3.637 5.688-0.611 24.805-46.908 1.764c-1.656 4.393-3.637 7.992-6.084 10.656-2.484 2.664-4.861 4.717-8.533 5.328-3.779 0.469-10.15 0.359-13.715-2.125-3.637-2.555-6.229-6.768-7.92-12.779l-68.833 4.248-28.332-7.092c-2.916 4.969-5.724 7.92-8.819 8.855-3.097 0.9-7.021-0.791-9.433-3.527-2.521-2.881-4.356-7.271-5.508-13.465l-54.215-15.64c-1.477 3.564-3.061 5.652-5.148 6.408-2.052 0.684-5.508-0.576-7.02-2.125-1.656-1.691-2.34-4.03-2.448-7.45z"/>
        <path id="path101" style="fill-rule:evenodd;fill:#f2efe9" d="m196.46 115.36c-18.828 2.7-37.801 5.796-57.744 9.432-20.088 3.636-46.549 9.036-61.057 12.312-14.4 3.132-19.367 3.564-24.624 6.588-5.364 2.952-7.596 6.624-7.092 11.16 21.132-2.772 42.3-5.328 64.476-7.956 22.176-2.664 44.137-5.148 67.284-7.596 1.188-5.328 3.42-10.044 6.552-14.004 3.168-4.104 7.092-7.236 12.205-9.936z"/>
        <path id="path103" style="fill-rule:evenodd;fill:#f2efe9" d="m181.24 140.56c0.324-2.484 1.439-5.256 3.348-8.172 1.801-3.168 4.393-6.876 7.92-9.576 3.492-2.664 6.192-4.572 13.104-6.012 6.876-1.404 16.812-2.196 28.008-2.52 11.16-0.504 26.963-0.18 38.375 0 11.34 0.108 21.168-0.504 28.945 1.08 7.559 1.512 12.023 3.816 16.451 8.172 4.32 4.356 7.416 10.116 9.432 17.712-22.535 0.54-45.287 0.828-69.768 0.72-24.552-0.108-49.319-0.576-75.815-1.404z"/>
        <path id="path105" style="fill-rule:evenodd;fill:#f2efe9" d="m181.85 145.17 0.289 80.136 148.03-0.36-0.898-78.372-147.42-1.404z"/>
        <path id="path107" style="fill-rule:evenodd;fill:#f2efe9" d="m204.56 244.09c4.371 0 7.92 4.129 7.92 9.217s-3.549 9.215-7.92 9.215c-4.372 0-7.92-4.127-7.92-9.215s3.548-9.217 7.92-9.217"/>
        <path id="path109" style="fill-rule:evenodd;fill:#f2efe9" d="m222.56 244.45c4.352 0 7.884 4.129 7.884 9.215 0 5.088-3.533 9.217-7.884 9.217s-7.885-4.129-7.885-9.217c0-5.086 3.533-9.215 7.885-9.215"/>
        <path id="path111" style="fill-rule:evenodd;fill:#f2efe9" d="m304.88 243.1c4.033 0 7.309 3.822 7.309 8.533 0 4.709-3.275 8.531-7.309 8.531s-7.309-3.822-7.309-8.531c0-4.711 3.276-8.533 7.309-8.533"/>
        <path id="path113" style="fill-rule:evenodd;fill:#f2efe9" d="m321.08 243.1c4.035 0 7.309 3.822 7.309 8.533 0 4.709-3.273 8.531-7.309 8.531-4.033 0-7.307-3.822-7.307-8.531 0-4.711 3.274-8.533 7.307-8.533"/>
        <path id="path115" style="fill-rule:evenodd;fill:#f2efe9" d="m181.85 229.19 0.289 11.341 148.03-0.037-0.898-11.088-147.42-0.216z"/>
        <path id="path117" style="fill-rule:evenodd;fill:#f2efe9" d="m181.85 263.97 0.289 20.555 148.03-0.107-0.898-20.088-147.42-0.36z"/>
        <path id="path119" style="fill-rule:evenodd;fill:#f2efe9" d="m126.7 148.7v54.612l25.272 1.764v-58.5l-25.272 2.124z"/>
        <path id="path121" style="fill-rule:evenodd;fill:#f2efe9" d="m98.401 152.26v49.284l24.048 1.044v-52.812l-24.048 2.484z"/>
        <path id="path123" style="fill-rule:evenodd;fill:#f2efe9" d="m71.725 156 0.576 44.172 19.979 0.288 0.468-46.98-21.023 2.52z"/>
        <path id="path125" style="fill-rule:evenodd;fill:#f2efe9" d="m45.661 158.74v40.428l20.124 0.252v-42.228l-20.124 1.548z"/>
        <path id="path127" style="fill-rule:evenodd;fill:#f2efe9" d="m46.596 203.67 106.02 5.688 0.288 20.556-106.31-9.936v-16.308z"/>
        <path id="path129" style="fill-rule:evenodd;fill:#f2efe9" d="m46.596 225.3v42.551l14.617 7.813h-0.001c-0.936-12.023-0.936-20.916 0-26.963 0.937-6.014 3.312-7.74 5.472-9.217 2.017-1.764 4.537-2.809 6.732-0.359 2.053 2.52 5.004 8.387 6.084 15.264 1.008 6.805 1.008 15.012 0 25.164l53.28 16.309c-1.765-10.766-2.017-19.369-0.899-26.244 1.079-6.949 4.787-12.709 7.631-14.904 2.809-2.16 6.769-0.396 9.108 1.799 2.196 2.053 3.853 5.545 4.572 10.621v-30.48c-35.53-3.79-71.062-7.57-106.59-11.35z"/>
        <path id="path131" style="fill-rule:evenodd;fill:#f2efe9" d="m157.15 145.85 20.124-1.764v163.48l-19.8-6.012-0.324-155.7z"/>
        <path id="path133" style="fill-rule:evenodd;fill:#0c4a6e" d="m184.08 148.95h61.884c-7.164 1.548-11.844 4.176-14.328 7.74-2.412 3.564 3.527 11.232-0.504 13.716-4.248 2.376-21.132-2.484-24.552 0.576-3.348 2.988 7.74 12.132 4.104 17.28-3.852 5.04-12.527 9.36-26.604 13.104v-52.416z"/>
        <path id="path135" style="fill-rule:evenodd;fill:#0c4a6e" d="m252.08 119.18c6.805 0.612 26.785-1.08 36.324 0.612 9.252 1.656 21.277 8.496 19.404 9.54-2.088 0.936-25.488-3.924-31.176-3.6-5.615 0.252 4.32 4.212-2.557 5.364-7.164 1.116-33.443 2.34-39.383 1.188-5.833-1.368 4.752-6.66 4.104-8.928-0.863-2.376-10.296-3.456-8.713-4.752 1.656-1.404 14.652-3.096 18.434-2.988 3.528 0.036-3.06 2.845 3.563 3.564z"/>
        <path id="path137" style="fill-rule:evenodd;fill:#0c4a6e" d="m89.977 136.46c10.151-2.664 33.264-6.66 47.556-8.928 14.185-2.376 31.319-5.58 36.828-4.752 5.184 0.828 0.612 7.704-5.112 9.504-5.867 1.656-22.716-1.008-29.16 0.612-6.371 1.548-2.16 7.488-9.18 8.928-7.271 1.296-26.352-0.9-33.768-0.612-7.381 0.288-6.948 2.016-10.225 2.412-3.42 0.36-10.224 0.432-9.72-0.612 0.505-1.189 2.629-4.069 12.781-6.552z"/>
</g>
<!-- bus stop -->
        <g transform="translate(330, 130)">
          <path fill="none" stroke="#616161" stroke-width="3" stroke-miterlimit="10" d="M42.98 21.58h29.79">

          </path>

          <path fill="none" stroke="#616161" stroke-width="3" stroke-miterlimit="10" d="M42.98 36.82h29.79">

          </path>

          <path d="M64.79 174.32H53.3V7.49S54.37 5 59.05 5s5.75 2.49 5.75 2.49v116.83z" fill="#9e9e9e">

          </path>
          <path d="M61.84 5.37v94.39H53.3v8.59c1.45.01 2.76.18 3.94.44a5.85 5.85 0 0 1 4.61 5.71v9.82h2.95V7.49c-.01 0-.63-1.43-2.96-2.12z" fill="#757575">

          </path>
<g transform="translate(-32,-10) scale(1.5)">

          <path d="M92.64 4.32c-13.39 0-24.22 10.83-24.22 24.31s10.83 24.22 24.22 24.22s24.22-10.83 24.22-24.22S106.03 4.32 92.64 4.32z" fill="#0c4a6e">

          </path>

          <path d="M103.22 13.37c-1.52-.38-4.55-.78-10.57-.78s-9.05.39-10.57.78c-.9.23-3.91 1.48-3.91 4.85V39c0 1.14.92 2.07 2.07 2.07H81v2.3c0 .67.54 1.21 1.21 1.21h2.45c.67 0 1.21-.54 1.21-1.21v-2.3h13.54v2.3c0 .67.54 1.21 1.21 1.21h2.45c.67 0 1.21-.54 1.21-1.21v-2.3h.78c1.14 0 2.07-.92 2.07-2.07V18.22c0-3.23-3.01-4.63-3.91-4.85zm-17.11 1.65c0-.51.41-.92.92-.92h11.22c.51 0 .92.41.92.92v1.63c0 .51-.41.92-.92.92H87.03c-.51 0-.92-.41-.92-.92v-1.63zm.19 21.89c0 .34-.28.62-.62.62h-2.47a2.11 2.11 0 0 1-2.11-2.11v-1.11c0-.34.28-.62.62-.62h2.47c1.16 0 2.11.94 2.11 2.11v1.11zm17.88-1.49c0 1.16-.94 2.11-2.11 2.11H99.6c-.34 0-.62-.28-.62-.62V35.8c0-1.16.94-2.11 2.11-2.11h2.47c.34 0 .62.28.62.62v1.11zm.56-9.03c0 1.34-2.9 3.68-12.1 3.68c-9.21 0-12.1-2.17-12.1-3.68v-6.14c0-.4.4-1.4 1.4-1.4h21.56c1 0 1.24 1.01 1.24 1.4v6.14z" fill="#ffffff">

          </path>

</g>
          <g transform="translate(-30,-10) scale(1.5)">

            <path fill="#ffca28" d="M13.13 14.2h34.08v29.6H13.13z">

            </path>

            <path d="M45.31 14.2c1.05 0 1.9.85 1.9 1.9v25.8a1.9 1.9 0 0 1-1.9 1.9H15.04a1.9 1.9 0 0 1-1.9-1.9V16.1c0-1.05.85-1.9 1.9-1.9h30.27m0-2H15.04c-2.15 0-3.9 1.75-3.9 3.9v25.8c0 2.15 1.75 3.9 3.9 3.9h30.27c2.15 0 3.9-1.75 3.9-3.9V16.1c.01-2.15-1.75-3.9-3.9-3.9z" fill="#9e9e9e">

            </path>

            <path fill="none" stroke="#fffde7" stroke-width="2" stroke-miterlimit="10" d="M13.13 23.89h34.09">

            </path>

            <path fill="none" stroke="#fffde7" stroke-width="2" stroke-miterlimit="10" d="M13.13 34.11h34.09">

            </path>

            <path fill="#757575" d="M15.23 17.49h8.57v2.26h-8.57z">

            </path>

            <path fill="#757575" d="M15.23 38.22h6.46v2.26h-6.46z">

            </path>

            <path fill="#757575" d="M37.96 38.22h6.46v2.26h-6.46z">

            </path>

            <path fill="#757575" d="M37.96 17.49h6.46v2.26h-6.46z">

            </path>

            <path fill="#757575" d="M34.64 27.86h3.72v2.26h-3.72z">

            </path>

            <path fill="#757575" d="M40.7 27.86h3.72v2.26H40.7z">

            </path>

            <path fill="#757575" d="M15.23 27.86h11.88v2.26H15.23z">

            </path>

          </g>

        </g>
      </g>
    </g>
  </g>

</svg>
