<svg width="30" height="30" viewBox="0 0 30 30" fill="none" xmlns="http://www.w3.org/2000/svg">
<rect width="30" height="30" rx="6" fill="#3B82F6"/>
<path d="M24.0006 10V19C24.0006 19.71 23.6206 20.36 23.0006 20.72V22.25C23.0006 22.66 22.6606 23 22.2506 23H21.7506C21.3406 23 21.0006 22.66 21.0006 22.25V21H14.0006V22.25C14.0006 22.66 13.6606 23 13.2506 23H12.7506C12.3406 23 12.0006 22.66 12.0006 22.25V20.72C11.3906 20.36 11.0006 19.71 11.0006 19V10C11.0006 7 14.0006 7 17.5006 7C21.0006 7 24.0006 7 24.0006 10ZM15.0006 18C15.0006 17.45 14.5506 17 14.0006 17C13.4506 17 13.0006 17.45 13.0006 18C13.0006 18.55 13.4506 19 14.0006 19C14.5506 19 15.0006 18.55 15.0006 18ZM22.0006 18C22.0006 17.45 21.5506 17 21.0006 17C20.4506 17 20.0006 17.45 20.0006 18C20.0006 18.55 20.4506 19 21.0006 19C21.5506 19 22.0006 18.55 22.0006 18ZM22.0006 10H13.0006V14H22.0006V10ZM9.0006 12.5C8.9706 11.12 7.8306 10 6.4506 10.05C5.0706 10.08 3.9706 11.22 4.0006 12.6C4.0306 13.77 4.8606 14.77 6.0006 15V23H7.0006V15C8.1806 14.76 9.0006 13.71 9.0006 12.5Z" fill="white"/>
</svg>
